# xmcd
#
# Track frame offsets:
#	150
#	13756
#	33165
#	49241
#	68154
#	86053
#	107058
#	124602
#	142752
#	160814
#	182409
#	197646
#	213843
#	235458
#	253409
#	269967
#	288880
#	308820
#	325660
#	340751
#
# Disc length: 4781 seconds
#
# Revision: 0
# Processed by: cddbd v1.5.2PL0 Copyright (c) Steve Scherf et al.
# Submitted via: EasyCDDAExtractor 11.0.2.1
#
DISCID=2112ab14
DTITLE=Various Artist - 100 Tubes Ete 2008 Cd5
DYEAR=2008
DGENRE=Pop
TTITLE0=Medhy Custos - Elles Demandent
TTITLE1=Les Déesses - On A Changé
TTITLE2=Perle Lama - Emmène-Moi Avec Toi
TTITLE3=Princess Lover - Mon Soleil
TTITLE4=Thierry Cham - Océan
TTITLE5=Soumia - Ton Silence
TTITLE6=Nichols Feat. Sennsy - L'ange De Tes Nuits
TTITLE7=Kaysha - Love De Toi
TTITLE8=Laury and Mélissa - Jou
TTITLE9=Ali Angel - Juste Nous
TTITLE10=Ii Wayz (Aycee and Neeko) - Ferme Tes Yeux
TTITLE11=Jocelyne Deloumeaux - Avec Toi
TTITLE12=Warren - A Fleur De Vous
TTITLE13=Nichols - Dans Tes Yeux
TTITLE14=Elizio - Rupture
TTITLE15=Marvin - Tout Est Fini
TTITLE16=Metissa and Laury - Mélancolie
TTITLE17=Nichols Feat. Marisa - Vini
TTITLE18=Dis L'heure 2 Zouk (Lynnsha, Sweety Et Jacob Desvarieux) - Ma Rivale
TTITLE19=Zouk Machine - Maldon
EXTD=
EXTT0=
EXTT1=
EXTT2=
EXTT3=
EXTT4=
EXTT5=
EXTT6=
EXTT7=
EXTT8=
EXTT9=
EXTT10=
EXTT11=
EXTT12=
EXTT13=
EXTT14=
EXTT15=
EXTT16=
EXTT17=
EXTT18=
EXTT19=
PLAYORDER=
